<svg xmlns="http://www.w3.org/2000/svg" viewBox="0 0 62.83 65.77"><defs><style>.cls-1,.cls-2{fill:none;stroke:#000;stroke-width:3px;}.cls-1{stroke-miterlimit:10;}.cls-2{stroke-linejoin:round;}</style></defs><title>Asset 12</title><g id="Layer_2" data-name="Layer 2"><g id="Layer_2-2" data-name="Layer 2"><circle class="cls-1" cx="31.41" cy="22.73" r="21.23"/><ellipse class="cls-1" cx="31.41" cy="22.73" rx="10.26" ry="21.23"/><ellipse class="cls-1" cx="31.41" cy="22.73" rx="21.23" ry="10.26"/><line class="cls-1" x1="31.41" y1="43.95" x2="31.41" y2="54.77"/><circle class="cls-1" cx="31.41" cy="59.24" r="4.48"/><line class="cls-1" x1="35.89" y1="59.24" x2="50.32" y2="59.24"/><rect class="cls-2" x="50.36" y="53.75" width="10.97" height="10.51" rx="1.52"/><path class="cls-2" d="M55.84,47.64h0A3.35,3.35,0,0,1,59.19,51v2.72a0,0,0,0,1,0,0h-6.7a0,0,0,0,1,0,0V51A3.35,3.35,0,0,1,55.84,47.64Z"/><line class="cls-1" x1="26.94" y1="59.24" x2="12.51" y2="59.24"/><rect class="cls-2" x="1.5" y="53.75" width="10.97" height="10.51" rx="1.52" transform="translate(13.97 118.02) rotate(-180)"/><path class="cls-2" d="M3.63,47.64h6.7a0,0,0,0,1,0,0v2.72A3.35,3.35,0,0,1,7,53.71H7a3.35,3.35,0,0,1-3.35-3.35V47.64A0,0,0,0,1,3.63,47.64Z" transform="translate(13.97 101.36) rotate(-180)"/></g></g></svg>