<svg xmlns="http://www.w3.org/2000/svg" viewBox="0 0 68.76 57.27"><defs><style>.cls-1,.cls-2{fill:none;stroke:#000;stroke-linejoin:round;stroke-width:3px;}.cls-2{stroke-linecap:round;}</style></defs><title>Asset 14</title><g id="Layer_2" data-name="Layer 2"><g id="Layer_2-2" data-name="Layer 2"><path class="cls-1" d="M37.25,41H4.31A2.81,2.81,0,0,1,1.5,38.2V4.31A2.81,2.81,0,0,1,4.31,1.5H51.63a2.81,2.81,0,0,1,2.81,2.81V27.94"/><line class="cls-1" x1="1.5" y1="8.91" x2="54.44" y2="8.91"/><rect class="cls-1" x="11.05" y="13.98" width="6.6" height="7.96" rx="3.09"/><polyline class="cls-2" points="20.93 13.98 23.34 13.98 23.34 21.93"/><rect class="cls-1" x="32.6" y="13.69" width="6.6" height="7.96" rx="3.09"/><polyline class="cls-2" points="42.48 13.69 44.89 13.69 44.89 21.65"/><rect class="cls-1" x="11.05" y="27.99" width="6.6" height="7.96" rx="3.09"/><polyline class="cls-2" points="20.93 28 23.34 28 23.34 35.95"/><circle class="cls-1" cx="45.4" cy="33.9" r="10.82"/><line class="cls-2" x1="53.06" y1="41.56" x2="56.72" y2="45.22"/><path class="cls-2" d="M59.09,43.28h4.64A1.31,1.31,0,0,1,65,44.59v8.55a3.41,3.41,0,0,1-3.41,3.41h-.45a3.41,3.41,0,0,1-3.41-3.41V44.59A1.31,1.31,0,0,1,59.09,43.28Z" transform="translate(-17.31 58.05) rotate(-45)"/></g></g></svg>